<svg xmlns="http://www.w3.org/2000/svg" viewBox="0 0 32 32" width="32" height="32">
  <defs>
    <linearGradient id="bgGrad" x1="0%" y1="0%" x2="100%" y2="100%">
      <stop offset="0%" stop-color="#2563EB" />
      <stop offset="100%" stop-color="#1D4ED8" />
    </linearGradient>
    <linearGradient id="syncGrad" x1="0%" y1="0%" x2="100%" y2="0%">
      <stop offset="0%" stop-color="#ffffff" />
      <stop offset="100%" stop-color="#dbeafe" />
    </linearGradient>
  </defs>
  <rect width="32" height="32" rx="9" fill="url(#bgGrad)" />
  <path d="M10 10h8a3 3 0 0 1 3 3v0a3 3 0 0 1-3 3h-4a3 3 0 0 0-3 3v0a3 3 0 0 0 3 3h8" stroke="url(#syncGrad)" stroke-width="3" stroke-linecap="round" stroke-linejoin="round" fill="none" />
  <polygon points="20,7 23,10 20,13" fill="#ffffff" />
  <polygon points="12,19 9,22 12,25" fill="#ffffff" />
</svg>